<svg width="19" height="21" viewBox="0 0 19 21" fill="none" xmlns="http://www.w3.org/2000/svg">
<path d="M18.3596 16.7017C18.2913 16.5675 18.1908 16.4556 18.0687 16.3775L17.1938 15.811C16.8523 15.5895 16.5698 15.2764 16.3737 14.9023C16.1775 14.5281 16.0745 14.1055 16.0745 13.6757V8.57007C16.0737 7.08903 15.6283 5.64812 14.8049 4.46301C13.9816 3.27788 12.8245 2.41232 11.5071 1.99588C11.4501 1.97838 11.4 1.94146 11.3641 1.89063C11.3282 1.83981 11.3085 1.77782 11.308 1.71393C11.308 1.25936 11.1406 0.823422 10.8426 0.501998C10.5447 0.180575 10.1406 0 9.71928 0C9.29793 0 8.89382 0.180575 8.59588 0.501998C8.29793 0.823422 8.13053 1.25936 8.13053 1.71393C8.12997 1.7778 8.11026 1.83976 8.07439 1.89057C8.03848 1.94137 7.98835 1.97832 7.93139 1.99588C6.61397 2.41232 5.45696 3.27788 4.63361 4.46301C3.81025 5.64812 3.36485 7.08903 3.36403 8.57007V13.6748C3.36407 14.1047 3.26101 14.5272 3.06488 14.9014C2.86874 15.2756 2.58619 15.5886 2.24472 15.8101L1.36978 16.3767C1.21871 16.474 1.10122 16.6218 1.03517 16.7978C0.969111 16.9737 0.958103 17.1681 1.00381 17.3514C1.04953 17.5347 1.14945 17.6969 1.28842 17.8133C1.42738 17.9297 1.59779 17.9941 1.77372 17.9965H17.6624C17.8016 17.9929 17.9377 17.9508 18.0576 17.8742C18.1775 17.7977 18.2771 17.6891 18.347 17.5591C18.4168 17.4291 18.4546 17.2819 18.4565 17.1316C18.4586 16.9813 18.4248 16.833 18.3584 16.7009L18.3596 16.7017Z" fill="#635A8F"/>
<path d="M8.3459 20.0947C8.64582 20.3237 8.99087 20.4744 9.35393 20.5351C9.717 20.5958 10.0882 20.5649 10.4383 20.4447C10.7884 20.3245 11.1079 20.1183 11.3716 19.8424C11.6354 19.5665 11.8362 19.2283 11.9583 18.8545H7.47904C7.64255 19.3544 7.94531 19.7876 8.3459 20.0947Z" fill="#635A8F"/>
</svg>
