<svg width="28" height="27" viewBox="0 0 28 27" fill="none" xmlns="http://www.w3.org/2000/svg">
<path d="M1.87777e-06 8.99101C-0.000736164 7.80932 0.216094 6.63907 0.638075 5.54729C1.06006 4.45551 1.6789 3.46363 2.45917 2.62847C3.23944 1.7933 4.16581 1.13125 5.18522 0.680216C6.20464 0.229186 7.29709 -0.00196052 8.4 1.25254e-05H19.6C24.2382 1.25254e-05 28 5.0515 28 10V27H8.4C3.7618 27 1.87777e-06 22.9575 1.87777e-06 18.009V8.99101ZM18.2 12C17.4268 12 16.8 12.6268 16.8 13.4V13.6C16.8 14.3732 17.4268 15 18.2 15C18.9732 15 19.6 14.3732 19.6 13.6V13.4C19.6 12.6268 18.9732 12 18.2 12ZM9.8 12C9.0268 12 8.4 12.6268 8.4 13.4V13.6C8.4 14.3732 9.0268 15 9.8 15C10.5732 15 11.2 14.3732 11.2 13.6V13.4C11.2 12.6268 10.5732 12 9.8 12Z" fill="#635A8F"/>
</svg>
