<svg width="29" height="29" viewBox="0 0 29 29" fill="none" xmlns="http://www.w3.org/2000/svg">
<path d="M12.4563 17.9736C14.2253 17.9736 15.6594 19.4824 15.6594 21.3436V23.5933L15.6481 23.7557C15.2058 26.9403 12.4869 28.4716 7.92478 28.4716C3.37903 28.4716 0.616838 26.9578 0.0205851 23.8099L0 23.5903V21.3436C0 19.4824 1.43406 17.9736 3.20306 17.9736H12.4563ZM7.82969 5.99119C10.5815 5.99119 12.8122 8.33823 12.8122 11.2335C12.8122 14.1287 10.5815 16.4758 7.82969 16.4758C5.07791 16.4758 2.84716 14.1287 2.84716 11.2335C2.84716 8.33823 5.07791 5.99119 7.82969 5.99119ZM25.2686 0C27.0375 0 28.4716 1.50882 28.4716 3.37004V8.61233C28.4716 10.4736 27.0375 11.9824 25.2686 11.9824H23.058L19.4397 15.2882C18.8461 15.8304 17.9469 15.7636 17.4315 15.139C17.2067 14.8665 17.083 14.5178 17.083 14.1576L17.082 11.9617C15.481 11.775 14.2358 10.3466 14.2358 8.61233V3.37004C14.2358 1.50882 15.6699 0 17.4389 0H25.2686Z" fill="#635A8F"/>
</svg>
