<svg width="21" height="21" viewBox="0 0 21 21" fill="none" xmlns="http://www.w3.org/2000/svg">
<path d="M10.4612 15.2685C9.91408 15.2689 9.38949 15.469 9.0026 15.8248C8.61572 16.1807 8.39817 16.6632 8.39771 17.1664V20.5947H12.5247V17.1664C12.5243 16.6632 12.3067 16.1807 11.9198 15.8248C11.533 15.469 11.0084 15.2689 10.4612 15.2685Z" fill="#635A8F"/>
<path d="M19.0582 5.45062L11.964 0.555928C11.4367 0.194959 10.7968 0 10.1395 0C9.48209 0 8.84224 0.194959 8.31488 0.555928L1.22073 5.45062C0.842728 5.71114 0.5357 6.04887 0.323856 6.43718C0.112012 6.82548 0.00114502 7.25374 0 7.68819V17.4776C0.00160723 18.2189 0.322509 18.9295 0.892453 19.4537C1.4624 19.9779 2.23495 20.2731 3.04097 20.2745H6.33825V16.8463C6.33859 15.9191 6.73918 15.03 7.45197 14.3744C8.16476 13.7188 9.13142 13.3504 10.1395 13.3501C11.1472 13.3511 12.1134 13.7198 12.826 14.3752C13.5387 15.0307 13.9395 15.9193 13.9407 16.8463V20.2745H17.2336C18.0398 20.2737 18.8128 19.9788 19.3829 19.4544C19.953 18.9301 20.2737 18.2191 20.2746 17.4776V7.68819C20.2728 7.25426 20.1622 6.82656 19.9512 6.43843C19.7402 6.05031 19.4346 5.71226 19.0582 5.45062Z" fill="#635A8F"/>
</svg>
