<svg width="26" height="26" viewBox="0 0 26 26" fill="none" xmlns="http://www.w3.org/2000/svg">
<path d="M21 1H5C2.8 1 1 2.96495 1 5.36655V16.2829C1 18.6845 2.8 20.6495 5 20.6495V23.9244C5 24.9069 6.1 25.3435 6.7 24.6886L10.4 20.6495H21C23.2 20.6495 25 18.6845 25 16.2829V5.36655C25 2.96495 23.2 1 21 1ZM15 14.0997H9C8.4 14.0997 8 13.663 8 13.008C8 12.353 8.4 11.9164 9 11.9164H15C15.6 11.9164 16 12.353 16 13.008C16 13.663 15.6 14.0997 15 14.0997ZM17 9.73311H9C8.4 9.73311 8 9.29645 8 8.64147C8 7.98649 8.4 7.54983 9 7.54983H17C17.6 7.54983 18 7.98649 18 8.64147C18 9.29645 17.6 9.73311 17 9.73311Z" fill="url(#paint0_linear_17_1362)" stroke="#CFB6DD" stroke-linecap="round" stroke-linejoin="round"/>
<defs>
<linearGradient id="paint0_linear_17_1362" x1="13" y1="1" x2="13" y2="25" gradientUnits="userSpaceOnUse">
<stop offset="0.0856765" stop-color="#3B20BB"/>
<stop offset="0.986772" stop-color="#931FDD" stop-opacity="0.58"/>
</linearGradient>
</defs>
</svg>
