<svg width="21" height="21" viewBox="0 0 21 21" fill="none" xmlns="http://www.w3.org/2000/svg">
<path d="M14.8109 7.18832C14.8109 3.21677 11.5577 0 7.54273 0C3.52775 0 0.274536 3.21677 0.274536 7.18832C0.274536 8.72931 0.767235 10.149 1.60238 11.3216C1.13414 12.6784 0.361894 13.7566 0.351411 13.7701C0.274536 13.8735 0.25357 14.0262 0.298996 14.161C0.344423 14.2958 0.442264 14.3766 0.554082 14.3766C1.833 14.3766 2.89178 13.824 3.65354 13.2535C4.77872 13.9588 6.11005 14.3766 7.54273 14.3766C11.5577 14.3766 14.8109 11.1599 14.8109 7.18832ZM19.074 17.0723C19.9091 15.9042 20.4018 14.48 20.4018 12.939C20.4018 9.93336 18.5324 7.35904 15.8837 6.28529C15.9151 6.5818 15.9291 6.88282 15.9291 7.18832C15.9291 11.9461 12.1657 15.8143 7.54273 15.8143C7.16534 15.8143 6.79843 15.7784 6.43503 15.7289C7.53574 18.3122 10.1215 20.1273 13.1336 20.1273C14.5663 20.1273 15.8976 19.714 17.0228 19.0041C17.7846 19.5747 18.8434 20.1273 20.1223 20.1273C20.2341 20.1273 20.3354 20.0419 20.3774 19.9116C20.4228 19.7814 20.4018 19.6286 20.325 19.5208C20.3145 19.5073 19.5422 18.4335 19.074 17.0723Z" fill="#635A8F"/>
</svg>
