<svg width="29" height="29" viewBox="0 0 29 29" fill="none" xmlns="http://www.w3.org/2000/svg">
<path d="M18.1463 18.9716C19.5219 18.9716 20.637 20.2103 20.637 21.7383L20.6354 23.2593C20.8015 26.7202 18.4849 28.4716 14.3275 28.4716C10.1874 28.4716 7.82783 26.7487 7.82783 23.3192V21.7383C7.82783 20.2103 8.94294 18.9716 10.3185 18.9716H18.1463ZM2.49067 11.0668L8.71878 11.0669C8.60171 11.5722 8.53945 12.1018 8.53945 12.6477C8.53945 14.4113 9.18937 16.0063 10.2377 17.1533L10.4683 17.3922L10.3185 17.3906C9.8896 17.3906 9.47684 17.4673 9.09065 17.6088C7.85992 18.0602 6.89937 19.1714 6.54865 20.5655L6.49964 20.5668C2.35953 20.5668 0 18.8438 0 15.4144V13.8335C0 12.3054 1.11511 11.0668 2.49067 11.0668ZM25.9742 11.0668C27.3497 11.0668 28.4648 12.3054 28.4648 13.8335L28.4633 15.3545C28.6293 18.8154 26.3127 20.5668 22.1553 20.5668L21.9158 20.5641C21.5758 19.2141 20.6638 18.1294 19.4883 17.6529C19.1534 17.5171 18.7972 17.4308 18.4267 17.4015L18.1463 17.3906L17.9965 17.3922C19.1793 16.2334 19.9254 14.5373 19.9254 12.6477C19.9254 12.1018 19.8632 11.5722 19.746 11.0669L25.9742 11.0668ZM14.2324 7.90483C16.5906 7.90483 18.5021 10.0283 18.5021 12.6477C18.5021 15.2672 16.5906 17.3906 14.2324 17.3906C11.8742 17.3906 9.96269 15.2672 9.96269 12.6477C9.96269 10.0283 11.8742 7.90483 14.2324 7.90483ZM6.40458 0C8.76268 0 10.6743 2.12347 10.6743 4.7429C10.6743 7.36232 8.76268 9.4858 6.40458 9.4858C4.04649 9.4858 2.13486 7.36232 2.13486 4.7429C2.13486 2.12347 4.04649 0 6.40458 0ZM22.0602 0C24.4184 0 26.33 2.12347 26.33 4.7429C26.33 7.36232 24.4184 9.4858 22.0602 9.4858C19.7021 9.4858 17.7905 7.36232 17.7905 4.7429C17.7905 2.12347 19.7021 0 22.0602 0Z" fill="#635A8F"/>
</svg>
