<svg width="25" height="25" viewBox="0 0 25 25" fill="none" xmlns="http://www.w3.org/2000/svg">
<path d="M22.3143 1.01583L22.3013 1.01916L22.2886 1.02317L2.02414 7.41181L2.01275 7.4154L2.00155 7.41953C1.32296 7.66965 0.918366 8.26658 0.857969 8.87862C0.796158 9.505 1.09871 10.1653 1.81398 10.4519L1.81463 10.4522L9.67382 13.5894L9.92643 13.6903L10.1483 13.533L13.9355 10.8484L10.7398 14.0374L10.5014 14.2753L10.6322 14.5856L14.2972 23.276L14.3023 23.2881L14.308 23.2999C14.6192 23.9418 15.2441 24.2618 15.8582 24.2148C16.4771 24.1675 17.0455 23.7521 17.2626 23.0394L24.1682 2.96989C24.3991 2.39426 24.2221 1.8163 23.8539 1.43841C23.4848 1.0596 22.9105 0.862291 22.3143 1.01583Z" fill="url(#paint0_linear_17_1366)" stroke="#CFB4DE"/>
<defs>
<linearGradient id="paint0_linear_17_1366" x1="16" y1="4.00012" x2="16" y2="17.0001" gradientUnits="userSpaceOnUse">
<stop stop-color="#3B21B6"/>
<stop offset="1" stop-color="#931FDD"/>
</linearGradient>
</defs>
</svg>
