<svg width="29" height="29" viewBox="0 0 29 29" fill="none" xmlns="http://www.w3.org/2000/svg">
<path d="M1.77948 26.9096C1.77948 28.0345 2.57468 28.9433 3.55895 28.9433H24.9127C25.8969 28.9433 26.6921 28.0345 26.6921 26.9096V8.60643H1.77948V26.9096ZM10.6769 13.4364C10.6769 13.017 10.9771 12.6738 11.3442 12.6738H17.1275C17.4945 12.6738 17.7948 13.017 17.7948 13.4364V13.9449C17.7948 14.3643 17.4945 14.7075 17.1275 14.7075H11.3442C10.9771 14.7075 10.6769 14.3643 10.6769 13.9449V13.4364ZM26.6921 0.47168H1.77948C0.795203 0.47168 0 1.38048 0 2.50537V5.5559C0 6.11516 0.400382 6.57274 0.889738 6.57274H27.5819C28.0712 6.57274 28.4716 6.11516 28.4716 5.5559V2.50537C28.4716 1.38048 27.6764 0.47168 26.6921 0.47168Z" fill="#635A8F"/>
</svg>
