<svg width="21" height="21" viewBox="0 0 21 21" fill="none" xmlns="http://www.w3.org/2000/svg">
<path d="M10.6933 12.3392C13.5283 12.3392 15.8265 9.577 15.8265 6.16961C15.8265 2.76223 13.5283 0 10.6933 0C7.85827 0 5.56006 2.76223 5.56006 6.16961C5.56006 9.577 7.85827 12.3392 10.6933 12.3392Z" fill="#635A8F"/>
<path d="M20.7545 17.5834C19.8306 15.7325 18.0853 14.1901 15.8267 13.2647C15.2107 13.059 14.492 13.059 13.9787 13.3675C12.9521 13.9845 11.9254 14.2929 10.6934 14.2929C9.46148 14.2929 8.43484 13.9845 7.40819 13.3675C6.89487 13.1618 6.17622 13.059 5.56024 13.3675C3.30163 14.2929 1.55634 15.8353 0.632359 17.6862C-0.0862904 19.023 1.04302 20.5654 2.58298 20.5654H18.8039C20.3439 20.5654 21.4732 19.023 20.7545 17.5834Z" fill="#635A8F"/>
</svg>
