<svg width="18" height="18" viewBox="0 0 18 18" fill="none" xmlns="http://www.w3.org/2000/svg">
<path d="M1.94344 0.775543L16.7447 8.14073C16.8943 8.21506 17.0206 8.33193 17.1091 8.47782C17.1975 8.62372 17.2444 8.79269 17.2444 8.96518C17.2444 9.13766 17.1975 9.30663 17.1091 9.45253C17.0206 9.59842 16.8943 9.7153 16.7447 9.78962L1.94344 17.1548C1.7917 17.2304 1.62228 17.2591 1.45534 17.2374C1.28839 17.2157 1.13095 17.1446 1.00174 17.0325C0.872528 16.9204 0.776992 16.772 0.726496 16.605C0.676 16.4381 0.672671 16.2595 0.716905 16.0906L2.19774 10.4423C2.21586 10.3731 2.25317 10.3109 2.30501 10.2636C2.35686 10.2163 2.42094 10.1859 2.48927 10.1763L9.6616 9.16252C9.69158 9.15808 9.71995 9.14565 9.74395 9.12644C9.76795 9.10723 9.78677 9.08189 9.79859 9.05288L9.81123 9.00757C9.81677 8.96676 9.80889 8.9252 9.78887 8.88965C9.76885 8.85409 9.73786 8.82661 9.70094 8.81169L9.6623 8.80073L2.49699 7.78698C2.42879 7.77717 2.36486 7.74673 2.31316 7.69943C2.26145 7.65212 2.22424 7.59006 2.20617 7.52093L0.716905 1.84045C0.672492 1.67152 0.675686 1.49286 0.726105 1.32576C0.776525 1.15866 0.872046 1.01016 1.00129 0.897943C1.13053 0.785729 1.28806 0.714532 1.45509 0.692832C1.62213 0.671131 1.79164 0.699841 1.94344 0.775543V0.775543Z" stroke="#C4C2CB" stroke-width="1.2"/>
</svg>
